<?xml version="1.0" encoding="UTF-8" standalone="no" ?>
<!DOCTYPE svg PUBLIC "-//W3C//DTD SVG 1.1//EN" "http://www.w3.org/Graphics/SVG/1.1/DTD/svg11.dtd">
<svg xmlns="http://www.w3.org/2000/svg" xmlns:xlink="http://www.w3.org/1999/xlink" version="1.1" width="1080" height="1080" viewBox="0 0 1080 1080" xml:space="preserve">
<desc>Created with Fabric.js 5.2.4</desc>
<defs>
</defs>
<g transform="matrix(1 0 0 1 540 540)" id="c5c9db7e-760b-4d2a-af48-d2b2f03b579f"  >
<rect style="stroke: none; stroke-width: 1; stroke-dasharray: none; stroke-linecap: butt; stroke-dashoffset: 0; stroke-linejoin: miter; stroke-miterlimit: 4; fill: rgb(255,255,255); fill-rule: nonzero; opacity: 1; visibility: hidden;" vector-effect="non-scaling-stroke"  x="-540" y="-540" rx="0" ry="0" width="1080" height="1080" />
</g>
<g transform="matrix(1 0 0 1 540 540)" id="5a95f0c4-d8c2-4598-8f8e-27ad970cfc73"  >
</g>
<g transform="matrix(45 0 0 45 540 540)"  >
<path style="stroke: none; stroke-width: 1; stroke-dasharray: none; stroke-linecap: butt; stroke-dashoffset: 0; stroke-linejoin: miter; stroke-miterlimit: 4; fill: rgb(255,255,255); fill-rule: nonzero; opacity: 1;"  transform=" translate(-12, -12)" d="M 9.75 9 C 9.750345630190154 7.855853755820898 10.609277913048915 6.894151005549016 11.746117162719173 6.765049231980497 C 12.882956412389433 6.635947458411978 13.935661415001384 7.380560796926163 14.192552772288149 8.495494686482283 C 14.449444129574914 9.610428576038402 13.828711454666287 10.740617849000346 12.750000000000004 11.122 C 11.850785295356852 11.439920358750513 11.249711913184127 12.290238836730861 11.25 13.244000000000002 L 11.25 14.25 C 11.25 14.664213562373096 11.585786437626904 15 12 15 C 12.414213562373096 15 12.75 14.664213562373096 12.75 14.25 L 12.75 13.244 C 12.75 12.926 12.95 12.642 13.25 12.536 C 15.047932470334459 11.900334862483476 16.082486278477447 10.016555118354534 15.654204880194957 8.158274628540882 C 15.225923481912469 6.2999941387272305 13.471211393646456 5.059061749905506 11.57642049359188 5.2744655103351885 C 9.681629593537307 5.489869270764871 8.250237029002085 7.093004646373224 8.25 9.000000000000002 C 8.25 9.414213562373096 8.585786437626904 9.75 9 9.75 C 9.414213562373096 9.75 9.75 9.414213562373096 9.75 9 M 12 16.5 C 11.378679656440358 16.5 10.875 17.003679656440358 10.875 17.625 C 10.875 18.246320343559642 11.378679656440358 18.75 12 18.75 C 12.621320343559642 18.75 13.125 18.246320343559642 13.125 17.625 C 13.125 17.003679656440358 12.621320343559642 16.5 12 16.5 C 11.585786437626904 16.5 11.25 16.835786437626904 11.25 17.25 C 11.25 17.664213562373096 11.585786437626904 18 12 18 C 11.792893218813452 18 11.625 17.832106781186546 11.625 17.625 C 11.625 17.417893218813454 11.792893218813452 17.25 12 17.25 C 12.207106781186548 17.25 12.375 17.417893218813454 12.375 17.625 C 12.375 17.832106781186546 12.207106781186548 18 12 18 C 12.414213562373096 18 12.75 17.664213562373096 12.75 17.25 C 12.75 16.835786437626904 12.414213562373096 16.5 12 16.5 M 22.5 12 C 22.5 17.799 17.799 22.5 12 22.5 C 6.2010000000000005 22.5 1.5 17.799 1.5 12 C 1.5 6.2010000000000005 6.201 1.5 12 1.5 C 17.799 1.5 22.5 6.201 22.5 12 M 24 12 C 24 5.373 18.627 0 12 0 C 5.373000000000001 0 0 5.373 0 12 C 0 18.627 5.373 24 12 24 C 18.627 24 24 18.627 24 12" stroke-linecap="round" />
</g>
</svg>